# xmcd
#
# Track frame offsets:
#	150
#	17169
#	28913
#	39284
#	52737
#	65428
#	77773
#	92230
#	104090
#	116562
#	129192
#	139387
#	154607
#	166949
#
# Disc length: 2425 seconds
#
# Revision: 1
# Processed by: cddbd v1.5.2PL0 Copyright (c) Steve Scherf et al.
# Submitted via: audiograbber 1.83.01
#
DISCID=b309770e
DTITLE=Dale Watson - The Truckin' Session Vol. 2 
DYEAR=2016
DGENRE=country
TTITLE0=Drag N Fly 
TTITLE1=Jack's Truck Stop And Cafe 
TTITLE2=Truck Stop In La Grange 
TTITLE3=10-4 
TTITLE4=Yankee Doodle Jean 
TTITLE5=Hey Driver 
TTITLE6=Hero
TTITLE7=I Got To Drive 
TTITLE8=Truckin Man 
TTITLE9=Me And Freddie And Jake 
TTITLE10=Truckin' Queen 
TTITLE11=Let This Trucker Go 
TTITLE12=No Help Wanted 
TTITLE13=Texas Boogie 
EXTD=
EXTT0=
EXTT1=
EXTT2=
EXTT3=
EXTT4=
EXTT5=
EXTT6=
EXTT7=
EXTT8=
EXTT9=
EXTT10=
EXTT11=
EXTT12=
EXTT13=
PLAYORDER=
